#N canvas 598 61 1638 950 10;
#X obj 526 361 r emg;
#X obj 196 464 abs;
#X obj 178 509 *~;
#X obj 318 462 abs;
#X obj 300 507 *~;
#X obj 433 461 abs;
#X obj 415 506 *~;
#X obj 549 459 abs;
#X obj 531 504 *~;
#X obj 671 460 abs;
#X obj 653 505 *~;
#X obj 793 458 abs;
#X obj 775 503 *~;
#X obj 908 457 abs;
#X obj 890 502 *~;
#X obj 1024 455 abs;
#X obj 1006 500 *~;
#X obj 525 390 unpack f f f f f f f f;
#X obj 581 780 dac~ 1 2;
#X obj 318 484 lop~ 3;
#X obj 196 486 lop~ 3;
#X obj 433 483 lop~ 3;
#X obj 549 481 lop~ 3;
#X obj 671 482 lop~ 3;
#X obj 793 480 lop~ 3;
#X obj 908 479 lop~ 3;
#X obj 1024 477 lop~ 3;
#X obj 635 46 r euler;
#X obj 634 68 unpack f f f;
#X obj 1197 222 lop~ 3;
#X obj 1250 222 lop~ 3;
#X obj 1308 222 lop~ 3;
#X obj 1217 253 dac~ 27 28 29 30;
#X text 632 27 Euler unpacks to: roll \, pitch \, yaw;
#X obj 541 196 +~ 100;
#N canvas 595 285 450 300 print_myo_inputs 0;
#X obj 75 17 inlet;
#X obj 212 92 metro 1000;
#X obj 220 68 tgl 15 0 empty empty empty 17 7 0 10 -262144 -1 -1 0
1;
#X obj 50 154 r emg;
#X obj 134 153 r acc;
#X obj 209 149 r ori;
#X obj 295 151 r gyr;
#X obj 377 150 r euler;
#N canvas 837 200 835 398 emg_print 0;
#X obj 182 7 inlet;
#X obj 483 10 inlet;
#X obj 371 93 unpack f f f f f f f f;
#X obj 388 128 f;
#X obj 398 138 f;
#X obj 408 148 f;
#X obj 418 158 f;
#X obj 428 168 f;
#X obj 438 178 f;
#X obj 448 188 f;
#X obj 463 207 f;
#X obj 218 132 bng 15 250 50 0 empty empty empty 17 7 0 10 -262144
-1 -1;
#X obj 407 246 print emg;
#X connect 0 0 11 0;
#X connect 1 0 2 0;
#X connect 2 0 3 1;
#X connect 2 1 4 1;
#X connect 2 2 5 1;
#X connect 2 3 6 1;
#X connect 2 4 7 1;
#X connect 2 5 8 1;
#X connect 2 6 9 1;
#X connect 2 7 10 1;
#X connect 3 0 12 0;
#X connect 4 0 12 0;
#X connect 5 0 12 0;
#X connect 6 0 12 0;
#X connect 7 0 12 0;
#X connect 8 0 12 0;
#X connect 9 0 12 0;
#X connect 10 0 12 0;
#X connect 11 0 3 0;
#X connect 11 0 4 0;
#X connect 11 0 5 0;
#X connect 11 0 6 0;
#X connect 11 0 7 0;
#X connect 11 0 8 0;
#X connect 11 0 9 0;
#X connect 11 0 10 0;
#X restore 35 221 pd emg_print;
#N canvas 605 200 835 398 ori_print 0;
#X obj 182 7 inlet;
#X obj 483 10 inlet;
#X obj 323 117 f;
#X obj 333 127 f;
#X obj 343 137 f;
#X obj 353 147 f;
#X obj 269 123 bng 15 250 50 0 empty empty empty 17 7 0 10 -262144
-1 -1;
#X obj 315 85 unpack f f f f;
#X obj 340 184 print ori;
#X connect 0 0 6 0;
#X connect 1 0 7 0;
#X connect 2 0 8 0;
#X connect 3 0 8 0;
#X connect 4 0 8 0;
#X connect 5 0 8 0;
#X connect 6 0 2 0;
#X connect 6 0 3 0;
#X connect 6 0 4 0;
#X connect 6 0 5 0;
#X connect 7 0 2 1;
#X connect 7 1 3 1;
#X connect 7 2 4 1;
#X connect 7 3 5 1;
#X restore 179 220 pd ori_print;
#N canvas 586 461 835 398 euler_print 0;
#X obj 182 7 inlet;
#X obj 483 10 inlet;
#X obj 323 117 f;
#X obj 333 127 f;
#X obj 343 137 f;
#X obj 269 123 bng 15 250 50 0 empty empty empty 17 7 0 10 -262144
-1 -1;
#X obj 315 85 unpack f f f;
#X obj 241 193 print roll;
#X obj 320 226 print pitch;
#X obj 424 261 print yaw;
#X connect 0 0 5 0;
#X connect 1 0 6 0;
#X connect 2 0 7 0;
#X connect 3 0 8 0;
#X connect 4 0 9 0;
#X connect 5 0 2 0;
#X connect 5 0 3 0;
#X connect 5 0 4 0;
#X connect 6 0 2 1;
#X connect 6 1 3 1;
#X connect 6 2 4 1;
#X restore 323 221 pd euler_print;
#X connect 0 0 2 0;
#X connect 1 0 8 0;
#X connect 1 0 9 0;
#X connect 1 0 10 0;
#X connect 2 0 1 0;
#X connect 3 0 8 1;
#X connect 5 0 9 1;
#X connect 7 0 10 1;
#X restore 31 58 pd print_myo_inputs;
#X obj 29 20 loadbang;
#X obj 543 171 *~ 100;
#X obj 770 127 lop~ 3;
#N canvas 235 177 633 376 standstill 1;
#X obj 124 350 outlet~;
#X obj 118 13 inlet;
#X obj 139 242 line~;
#X obj 149 107 tgl 15 0 empty empty empty 17 7 0 10 -262144 -1 -1 0
1;
#X obj 150 139 select 1 0;
#X obj 139 269 *~;
#X obj 133 170 delay 10;
#X msg 135 198 1 20000;
#X obj 131 46 abs;
#X obj 208 105 change;
#X obj 26 139 print standstill;
#X obj 238 138 print moved;
#X msg 195 196 0 50;
#X obj 149 79 < 0.08;
#X connect 1 0 8 0;
#X connect 2 0 5 0;
#X connect 2 0 5 1;
#X connect 3 0 9 0;
#X connect 4 0 6 0;
#X connect 4 0 10 0;
#X connect 4 1 12 0;
#X connect 4 1 11 0;
#X connect 5 0 0 0;
#X connect 6 0 7 0;
#X connect 7 0 2 0;
#X connect 8 0 13 0;
#X connect 9 0 4 0;
#X connect 12 0 2 0;
#X connect 13 0 3 0;
#X restore 1259 122 pd standstill;
#X obj 1259 68 r accmag;
#X obj 1259 95 - 0.98;
#X obj 675 577 *~;
#X obj 511 579 *~;
#X obj 1313 96 lop~ 3;
#N canvas 93 527 1412 598 multipliers 0;
#X obj 243 298 1;
#X floatatom 409 66 5 0 0 0 - - -, f 5;
#X obj 291 298 +;
#X floatatom 242 323 5 0 0 0 - - -, f 5;
#X floatatom 292 324 5 0 0 0 - - -, f 5;
#X obj 338 297 +;
#X floatatom 339 323 5 0 0 0 - - -, f 5;
#X obj 387 296 +;
#X floatatom 387 320 5 0 0 0 - - -, f 5;
#X obj 444 293 +;
#X floatatom 444 319 5 0 0 0 - - -, f 5;
#X obj 500 293 +;
#X floatatom 500 319 5 0 0 0 - - -, f 5;
#X obj 559 292 +;
#X floatatom 559 318 5 0 0 0 - - -, f 5;
#X obj 613 294 +;
#X floatatom 613 320 5 0 0 0 - - -, f 5;
#X obj 410 93 / 1000;
#X obj 109 54 inlet;
#X obj 192 405 outlet;
#X obj 248 405 outlet;
#X obj 306 404 outlet;
#X obj 368 405 outlet;
#X obj 444 402 outlet;
#X obj 500 402 outlet;
#X obj 558 401 outlet;
#X obj 613 400 outlet;
#X obj 350 63 * 1000;
#X obj 352 38 + 1.01;
#X text 68 22 input -1 to 1;
#X obj 290 274 + 0.1;
#X obj 387 274 + 0.1;
#X obj 444 273 * 0.98;
#X obj 500 272 + 0.15;
#X obj 560 270 + 0.02;
#X obj 352 120 t b f f f f f f f f;
#X floatatom 292 121 5 0 0 0 - - -, f 5;
#X obj 125 189 * 3.14159;
#X obj 125 213 cos;
#X floatatom 124 234 5 0 0 0 - - -, f 5;
#X obj 122 143 - 1;
#X obj 124 166 * 2;
#X obj 1024 233 * 3.14159;
#X obj 1024 257 cos;
#X floatatom 1023 278 5 0 0 0 - - -, f 5;
#X obj 1021 187 - 1;
#X obj 1023 210 * 2;
#X obj 1283 45 inlet;
#X floatatom 973 76 5 0 0 0 - - -, f 5;
#X obj 974 103 / 1000;
#X obj 914 73 * 1000;
#X obj 916 130 t b f f f f f f f f;
#X floatatom 856 131 5 0 0 0 - - -, f 5;
#X obj 614 270 +;
#X obj 341 274 +;
#X obj 916 48 + 0.51;
#X connect 0 0 2 0;
#X connect 0 0 3 0;
#X connect 1 0 17 0;
#X connect 2 0 4 0;
#X connect 2 0 5 0;
#X connect 3 0 19 0;
#X connect 4 0 20 0;
#X connect 5 0 6 0;
#X connect 5 0 7 0;
#X connect 6 0 21 0;
#X connect 7 0 8 0;
#X connect 7 0 9 0;
#X connect 8 0 22 0;
#X connect 9 0 10 0;
#X connect 9 0 11 0;
#X connect 10 0 23 0;
#X connect 11 0 12 0;
#X connect 11 0 13 0;
#X connect 12 0 24 0;
#X connect 13 0 14 0;
#X connect 13 0 15 0;
#X connect 14 0 25 0;
#X connect 15 0 16 0;
#X connect 16 0 26 0;
#X connect 17 0 35 0;
#X connect 17 0 36 0;
#X connect 18 0 28 0;
#X connect 27 0 1 0;
#X connect 28 0 27 0;
#X connect 30 0 2 1;
#X connect 31 0 7 1;
#X connect 32 0 9 1;
#X connect 33 0 11 1;
#X connect 34 0 13 1;
#X connect 35 0 0 0;
#X connect 35 1 30 0;
#X connect 35 2 54 0;
#X connect 35 3 31 0;
#X connect 35 4 32 0;
#X connect 35 5 33 0;
#X connect 35 6 34 0;
#X connect 35 7 53 0;
#X connect 37 0 38 0;
#X connect 38 0 39 0;
#X connect 40 0 41 0;
#X connect 41 0 37 0;
#X connect 42 0 43 0;
#X connect 43 0 44 0;
#X connect 45 0 46 0;
#X connect 46 0 42 0;
#X connect 47 0 55 0;
#X connect 48 0 49 0;
#X connect 49 0 51 0;
#X connect 49 0 52 0;
#X connect 50 0 48 0;
#X connect 52 0 53 1;
#X connect 52 0 34 1;
#X connect 52 0 33 1;
#X connect 52 0 32 1;
#X connect 52 0 31 1;
#X connect 52 0 54 1;
#X connect 52 0 30 1;
#X connect 53 0 15 1;
#X connect 54 0 5 1;
#X connect 55 0 50 0;
#X restore 872 187 pd multipliers;
#X obj 129 437 *~;
#X obj 251 438 *~;
#X obj 366 436 *~;
#X obj 482 436 *~;
#X obj 604 437 *~;
#X obj 726 433 *~;
#X obj 841 432 *~;
#X obj 984 452 *~;
#X obj 129 464 osc~;
#X obj 251 462 osc~;
#X obj 366 461 osc~;
#X obj 482 459 osc~;
#X obj 604 460 osc~;
#X obj 726 458 osc~;
#X obj 841 457 osc~;
#X obj 985 475 osc~;
#X obj 545 745 clip~ -1 1;
#X obj 625 745 clip~ -1 1;
#N canvas 222 525 1240 788 distortion 0;
#X obj 138 41 inlet~;
#X obj 142 61 *~, f 2;
#X obj 601 160 inlet;
#X obj 713 162 inlet;
#X obj 801 160 inlet;
#X obj 895 162 inlet;
#X obj 99 267 *~;
#X obj 246 271 *~;
#X obj 400 271 *~;
#X text 114 518 metal zone! GET IN THE ZONE.;
#X text 598 135 dist;
#X obj 971 163 inlet;
#X obj 1065 165 inlet;
#X text 714 141 low;
#X text 804 138 mid;
#X text 888 136 high;
#X text 962 139 mid freq;
#X obj 971 192 vsl 15 128 0 1 0 0 empty empty empty 0 -9 0 10 -262144
-1 -1 2540 1;
#X obj 973 350 + 200;
#X obj 973 326 * 5000;
#X floatatom 975 374 5 0 0 0 - - -, f 5;
#X obj 416 231 hip~ 7000;
#X obj 718 384 dbtorms;
#X obj 715 197 vsl 15 128 -1 1 0 0 empty empty empty 0 -9 0 10 -262144
-1 -1 8572 1;
#X obj 715 337 * 15;
#X floatatom 718 406 9 0 0 0 - - -, f 9;
#X floatatom 740 311 5 0 0 0 - - -, f 5;
#X obj 717 360 + 100;
#X obj 805 379 dbtorms;
#X obj 802 192 vsl 15 128 -1 1 0 0 empty empty empty 0 -9 0 10 -262144
-1 -1 6350 1;
#X obj 802 332 * 15;
#X floatatom 805 401 9 0 0 0 - - -, f 9;
#X floatatom 827 306 5 0 0 0 - - -, f 5;
#X obj 804 355 + 100;
#X obj 888 380 dbtorms;
#X obj 885 193 vsl 15 128 -1 1 0 0 empty empty empty 0 -9 0 10 -262144
-1 -1 6985 1;
#X obj 885 333 * 15;
#X floatatom 888 402 9 0 0 0 - - -, f 9;
#X floatatom 910 307 5 0 0 0 - - -, f 5;
#X obj 887 356 + 100;
#X obj 246 234 bp~ 1000 4;
#X obj 237 374 *~;
#X obj 237 421 outlet~;
#X text 1065 141 outlet;
#X obj 1066 193 vsl 15 128 0 1 0 0 empty empty empty 0 -9 0 10 -262144
-1 -1 12700 1;
#X floatatom 1090 310 5 0 0 0 - - -, f 5;
#X obj 599 381 dbtorms;
#X obj 597 198 vsl 15 128 -1 1 0 0 empty empty empty 0 -9 0 10 -262144
-1 -1 0 1;
#X floatatom 599 403 9 0 0 0 - - -, f 9;
#X floatatom 621 308 5 0 0 0 - - -, f 5;
#X obj 598 357 + 100;
#X obj 108 228 bp~ 200 3.1;
#X msg 741 48 0;
#X msg 791 47 0.1;
#X floatatom 997 300 5 0 0 0 - - -, f 5;
#X msg 835 46 0.2;
#X obj 715 13 loadbang;
#X msg 896 46 1;
#X msg 667 52 0.35;
#X obj 142 112 clip~ -1 1;
#X obj 596 334 * 20;
#X connect 0 0 1 0;
#X connect 1 0 59 0;
#X connect 2 0 47 0;
#X connect 3 0 23 0;
#X connect 4 0 29 0;
#X connect 5 0 35 0;
#X connect 6 0 41 0;
#X connect 7 0 41 0;
#X connect 8 0 41 0;
#X connect 11 0 17 0;
#X connect 12 0 44 0;
#X connect 17 0 19 0;
#X connect 17 0 54 0;
#X connect 18 0 20 0;
#X connect 18 0 40 1;
#X connect 19 0 18 0;
#X connect 21 0 8 0;
#X connect 22 0 25 0;
#X connect 23 0 24 0;
#X connect 23 0 26 0;
#X connect 24 0 27 0;
#X connect 25 0 6 1;
#X connect 27 0 22 0;
#X connect 28 0 31 0;
#X connect 29 0 30 0;
#X connect 29 0 32 0;
#X connect 30 0 33 0;
#X connect 31 0 7 1;
#X connect 33 0 28 0;
#X connect 34 0 37 0;
#X connect 35 0 36 0;
#X connect 35 0 38 0;
#X connect 36 0 39 0;
#X connect 37 0 8 1;
#X connect 39 0 34 0;
#X connect 40 0 7 0;
#X connect 41 0 42 0;
#X connect 44 0 45 0;
#X connect 44 0 41 1;
#X connect 46 0 48 0;
#X connect 47 0 49 0;
#X connect 47 0 60 0;
#X connect 48 0 1 1;
#X connect 50 0 46 0;
#X connect 51 0 6 0;
#X connect 52 0 29 0;
#X connect 53 0 35 0;
#X connect 55 0 17 0;
#X connect 56 0 58 0;
#X connect 56 0 52 0;
#X connect 56 0 53 0;
#X connect 56 0 55 0;
#X connect 56 0 57 0;
#X connect 57 0 44 0;
#X connect 58 0 23 0;
#X connect 59 0 21 0;
#X connect 59 0 40 0;
#X connect 59 0 51 0;
#X connect 60 0 50 0;
#X restore 578 687 pd distortion;
#N canvas 1184 777 939 298 testemg 0;
#X obj 122 102 tgl 15 0 empty empty empty 17 7 0 10 -262144 -1 -1 0
1;
#X obj 77 179 pack f f f f f f f f;
#X obj 81 137 t f f f f f f f f;
#X obj 74 212 s emg;
#X obj 248 181 s accmag;
#X obj 419 23 vsl 15 128 -1 1 0 0 empty empty empty 0 -9 0 10 -262144
-1 -1 0 1;
#X floatatom 418 160 5 0 0 0 - - -, f 5;
#X obj 421 208 pack f f f;
#X obj 421 233 s euler;
#X obj 466 21 vsl 15 128 -1 1 0 0 empty empty empty 0 -9 0 10 -262144
-1 -1 900 1;
#X floatatom 465 161 5 0 0 0 - - -, f 5;
#X obj 513 23 vsl 15 128 -1 1 0 0 empty empty empty 0 -9 0 10 -262144
-1 -1 12000 1;
#X floatatom 512 160 5 0 0 0 - - -, f 5;
#X obj 368 167 t b;
#X connect 0 0 2 0;
#X connect 1 0 3 0;
#X connect 2 0 1 0;
#X connect 2 1 1 1;
#X connect 2 2 1 2;
#X connect 2 3 1 3;
#X connect 2 4 1 4;
#X connect 2 5 1 5;
#X connect 2 6 1 6;
#X connect 2 7 1 7;
#X connect 2 7 4 0;
#X connect 5 0 6 0;
#X connect 6 0 7 0;
#X connect 7 0 8 0;
#X connect 9 0 10 0;
#X connect 10 0 7 1;
#X connect 10 0 13 0;
#X connect 11 0 12 0;
#X connect 12 0 7 2;
#X connect 12 0 13 0;
#X connect 13 0 7 0;
#X restore 1140 81 pd testemg;
#X obj 1259 147 *~ 0.7;
#X obj 587 712 *~ 1;
#X obj 769 102 * 1;
#X obj 632 98 * 3.14159;
#X obj 632 122 cos;
#X floatatom 588 124 5 0 0 0 - - -, f 5;
#X obj 924 87 * 3.14159;
#X obj 924 111 cos;
#X floatatom 866 132 9 0 0 0 - - -, f 9;
#X obj 967 113 sin;
#X floatatom 956 143 9 0 0 0 - - -, f 9;
#X obj 820 56 * 3;
#X connect 0 0 17 0;
#X connect 1 0 20 0;
#X connect 2 0 43 0;
#X connect 3 0 19 0;
#X connect 4 0 43 0;
#X connect 5 0 21 0;
#X connect 6 0 43 0;
#X connect 7 0 22 0;
#X connect 8 0 43 0;
#X connect 9 0 23 0;
#X connect 10 0 42 0;
#X connect 11 0 24 0;
#X connect 12 0 42 0;
#X connect 13 0 25 0;
#X connect 14 0 42 0;
#X connect 15 0 26 0;
#X connect 16 0 42 0;
#X connect 17 0 1 0;
#X connect 17 1 3 0;
#X connect 17 2 5 0;
#X connect 17 3 7 0;
#X connect 17 4 9 0;
#X connect 17 5 11 0;
#X connect 17 6 13 0;
#X connect 17 7 15 0;
#X connect 19 0 4 1;
#X connect 20 0 2 1;
#X connect 21 0 6 1;
#X connect 22 0 8 1;
#X connect 23 0 10 1;
#X connect 24 0 12 1;
#X connect 25 0 14 1;
#X connect 26 0 16 1;
#X connect 27 0 28 0;
#X connect 28 0 69 0;
#X connect 28 1 68 0;
#X connect 28 2 77 0;
#X connect 29 0 32 0;
#X connect 30 0 32 1;
#X connect 31 0 32 2;
#X connect 34 0 46 0;
#X connect 34 0 47 0;
#X connect 34 0 48 0;
#X connect 34 0 49 0;
#X connect 34 0 50 0;
#X connect 34 0 51 0;
#X connect 34 0 52 0;
#X connect 34 0 53 0;
#X connect 37 0 34 0;
#X connect 38 0 37 0;
#X connect 39 0 66 0;
#X connect 40 0 41 0;
#X connect 41 0 39 0;
#X connect 41 0 44 0;
#X connect 42 0 64 0;
#X connect 43 0 64 0;
#X connect 44 0 32 3;
#X connect 45 0 46 1;
#X connect 45 1 47 1;
#X connect 45 2 48 1;
#X connect 45 3 49 1;
#X connect 45 4 50 1;
#X connect 45 5 51 1;
#X connect 45 6 52 1;
#X connect 45 7 53 1;
#X connect 46 0 54 0;
#X connect 47 0 55 0;
#X connect 48 0 56 0;
#X connect 49 0 57 0;
#X connect 50 0 58 0;
#X connect 51 0 59 0;
#X connect 52 0 60 0;
#X connect 53 0 61 0;
#X connect 54 0 2 0;
#X connect 55 0 4 0;
#X connect 56 0 6 0;
#X connect 57 0 8 0;
#X connect 58 0 10 0;
#X connect 59 0 12 0;
#X connect 60 0 14 0;
#X connect 61 0 16 0;
#X connect 62 0 18 0;
#X connect 63 0 18 1;
#X connect 64 0 67 0;
#X connect 66 0 42 1;
#X connect 66 0 43 1;
#X connect 67 0 62 0;
#X connect 67 0 63 0;
#X connect 68 0 38 0;
#X connect 68 0 30 0;
#X connect 69 0 70 0;
#X connect 70 0 64 1;
#X connect 70 0 71 0;
#X connect 70 0 29 0;
#X connect 72 0 73 0;
#X connect 72 0 75 0;
#X connect 73 0 74 0;
#X connect 73 0 45 0;
#X connect 73 0 31 0;
#X connect 75 0 45 1;
#X connect 75 0 76 0;
#X connect 77 0 72 0;
