#N canvas 1157 160 1108 769 10;
#X obj 522 314 r emg;
#X obj 196 464 abs;
#X obj 178 509 *~;
#X obj 129 464 osc~ 110;
#X obj 318 462 abs;
#X obj 300 507 *~;
#X obj 433 461 abs;
#X obj 415 506 *~;
#X obj 549 459 abs;
#X obj 531 504 *~;
#X obj 671 460 abs;
#X obj 653 505 *~;
#X obj 793 458 abs;
#X obj 775 503 *~;
#X obj 908 457 abs;
#X obj 890 502 *~;
#X obj 1024 455 abs;
#X obj 1006 500 *~;
#X obj 251 462 osc~ 200;
#X obj 366 461 osc~ 320;
#X obj 482 459 osc~ 430;
#X obj 604 460 osc~ 550;
#X obj 726 458 osc~ 670;
#X obj 841 457 osc~ 835;
#X obj 950 455 osc~ 1142;
#X obj 525 390 unpack f f f f f f f f;
#X obj 511 579 *~ 0.5;
#X obj 675 577 *~ 0.5;
#X obj 571 634 dac~ 1 2;
#X obj 318 484 lop~ 3;
#X obj 196 486 lop~ 3;
#X obj 433 483 lop~ 3;
#X obj 549 481 lop~ 3;
#X obj 671 482 lop~ 3;
#X obj 793 480 lop~ 3;
#X obj 908 479 lop~ 3;
#X obj 1024 477 lop~ 3;
#X obj 799 86 r euler;
#X obj 798 108 unpack f f f;
#X obj 823 177 lop~ 3;
#X obj 876 177 lop~ 3;
#X obj 934 177 lop~ 3;
#X obj 822 267 dac~ 27 28 29 30;
#X obj 129 419 *~ 1.1;
#X obj 250 417 *~ 2;
#X obj 366 416 *~ 3.2;
#X obj 456 390 *~ 4.3;
#X obj 606 344 *~ 5.5;
#X text 796 67 Euler unpacks to: roll \, pitch \, yaw;
#X obj 724 394 *~ 6.7;
#X obj 838 376 *~ 8.35;
#X obj 933 380 *~ 11.42;
#X obj 541 196 +~ 100;
#N canvas 595 285 450 300 print_myo_inputs 0;
#X obj 75 17 inlet;
#X obj 212 92 metro 1000;
#X obj 220 68 tgl 15 0 empty empty empty 17 7 0 10 -262144 -1 -1 0
1;
#X obj 50 154 r emg;
#X obj 134 153 r acc;
#X obj 209 149 r ori;
#X obj 295 151 r gyr;
#X obj 377 150 r euler;
#N canvas 837 200 835 398 emg_print 0;
#X obj 182 7 inlet;
#X obj 483 10 inlet;
#X obj 371 93 unpack f f f f f f f f;
#X obj 388 128 f;
#X obj 398 138 f;
#X obj 408 148 f;
#X obj 418 158 f;
#X obj 428 168 f;
#X obj 438 178 f;
#X obj 448 188 f;
#X obj 463 207 f;
#X obj 218 132 bng 15 250 50 0 empty empty empty 17 7 0 10 -262144
-1 -1;
#X obj 407 246 print emg;
#X connect 0 0 11 0;
#X connect 1 0 2 0;
#X connect 2 0 3 1;
#X connect 2 1 4 1;
#X connect 2 2 5 1;
#X connect 2 3 6 1;
#X connect 2 4 7 1;
#X connect 2 5 8 1;
#X connect 2 6 9 1;
#X connect 2 7 10 1;
#X connect 3 0 12 0;
#X connect 4 0 12 0;
#X connect 5 0 12 0;
#X connect 6 0 12 0;
#X connect 7 0 12 0;
#X connect 8 0 12 0;
#X connect 9 0 12 0;
#X connect 10 0 12 0;
#X connect 11 0 3 0;
#X connect 11 0 4 0;
#X connect 11 0 5 0;
#X connect 11 0 6 0;
#X connect 11 0 7 0;
#X connect 11 0 8 0;
#X connect 11 0 9 0;
#X connect 11 0 10 0;
#X restore 35 221 pd emg_print;
#N canvas 605 200 835 398 ori_print 0;
#X obj 182 7 inlet;
#X obj 483 10 inlet;
#X obj 323 117 f;
#X obj 333 127 f;
#X obj 343 137 f;
#X obj 353 147 f;
#X obj 269 123 bng 15 250 50 0 empty empty empty 17 7 0 10 -262144
-1 -1;
#X obj 315 85 unpack f f f f;
#X obj 340 184 print ori;
#X connect 0 0 6 0;
#X connect 1 0 7 0;
#X connect 2 0 8 0;
#X connect 3 0 8 0;
#X connect 4 0 8 0;
#X connect 5 0 8 0;
#X connect 6 0 2 0;
#X connect 6 0 3 0;
#X connect 6 0 4 0;
#X connect 6 0 5 0;
#X connect 7 0 2 1;
#X connect 7 1 3 1;
#X connect 7 2 4 1;
#X connect 7 3 5 1;
#X restore 179 220 pd ori_print;
#N canvas 586 461 835 398 euler_print 0;
#X obj 182 7 inlet;
#X obj 483 10 inlet;
#X obj 323 117 f;
#X obj 333 127 f;
#X obj 343 137 f;
#X obj 269 123 bng 15 250 50 0 empty empty empty 17 7 0 10 -262144
-1 -1;
#X obj 315 85 unpack f f f;
#X obj 241 193 print roll;
#X obj 320 226 print pitch;
#X obj 424 261 print yaw;
#X connect 0 0 5 0;
#X connect 1 0 6 0;
#X connect 2 0 7 0;
#X connect 3 0 8 0;
#X connect 4 0 9 0;
#X connect 5 0 2 0;
#X connect 5 0 3 0;
#X connect 5 0 4 0;
#X connect 6 0 2 1;
#X connect 6 1 3 1;
#X connect 6 2 4 1;
#X restore 323 221 pd euler_print;
#X connect 0 0 2 0;
#X connect 1 0 8 0;
#X connect 1 0 9 0;
#X connect 1 0 10 0;
#X connect 2 0 1 0;
#X connect 3 0 8 1;
#X connect 5 0 9 1;
#X connect 7 0 10 1;
#X restore 31 58 pd print_myo_inputs;
#X obj 29 20 loadbang;
#X obj 543 171 *~ 100;
#X obj 581 142 lop~ 3;
#X obj 580 117 * -1;
#X connect 0 0 25 0;
#X connect 1 0 30 0;
#X connect 2 0 26 0;
#X connect 3 0 2 0;
#X connect 4 0 29 0;
#X connect 5 0 26 0;
#X connect 6 0 31 0;
#X connect 7 0 26 0;
#X connect 8 0 32 0;
#X connect 9 0 26 0;
#X connect 10 0 33 0;
#X connect 11 0 27 0;
#X connect 12 0 34 0;
#X connect 13 0 27 0;
#X connect 14 0 35 0;
#X connect 15 0 27 0;
#X connect 16 0 36 0;
#X connect 17 0 27 0;
#X connect 18 0 5 0;
#X connect 19 0 7 0;
#X connect 20 0 9 0;
#X connect 21 0 11 0;
#X connect 22 0 13 0;
#X connect 23 0 15 0;
#X connect 24 0 17 0;
#X connect 25 0 1 0;
#X connect 25 1 4 0;
#X connect 25 2 6 0;
#X connect 25 3 8 0;
#X connect 25 4 10 0;
#X connect 25 5 12 0;
#X connect 25 6 14 0;
#X connect 25 7 16 0;
#X connect 26 0 28 0;
#X connect 27 0 28 1;
#X connect 29 0 5 1;
#X connect 30 0 2 1;
#X connect 31 0 7 1;
#X connect 32 0 9 1;
#X connect 33 0 11 1;
#X connect 34 0 13 1;
#X connect 35 0 15 1;
#X connect 36 0 17 1;
#X connect 37 0 38 0;
#X connect 38 0 39 0;
#X connect 38 1 40 0;
#X connect 38 1 57 0;
#X connect 38 2 41 0;
#X connect 39 0 42 0;
#X connect 40 0 42 1;
#X connect 41 0 42 2;
#X connect 43 0 3 0;
#X connect 44 0 18 0;
#X connect 45 0 19 0;
#X connect 46 0 20 0;
#X connect 47 0 21 0;
#X connect 49 0 22 0;
#X connect 50 0 23 0;
#X connect 51 0 24 0;
#X connect 52 0 43 0;
#X connect 52 0 51 0;
#X connect 52 0 50 0;
#X connect 52 0 49 0;
#X connect 52 0 47 0;
#X connect 52 0 46 0;
#X connect 52 0 45 0;
#X connect 52 0 44 0;
#X connect 55 0 52 0;
#X connect 56 0 55 0;
#X connect 57 0 56 0;
