#N canvas 0 22 1413 949 10;
#X obj 526 361 r emg;
#X obj 196 464 abs;
#X obj 178 509 *~;
#X obj 318 462 abs;
#X obj 300 507 *~;
#X obj 433 461 abs;
#X obj 415 506 *~;
#X obj 549 459 abs;
#X obj 531 504 *~;
#X obj 671 460 abs;
#X obj 653 505 *~;
#X obj 793 458 abs;
#X obj 775 503 *~;
#X obj 908 457 abs;
#X obj 890 502 *~;
#X obj 1024 455 abs;
#X obj 1006 500 *~;
#X obj 525 390 unpack f f f f f f f f;
#X obj 563 887 dac~ 1 2;
#X obj 318 484 lop~ 3;
#X obj 196 486 lop~ 3;
#X obj 433 483 lop~ 3;
#X obj 549 481 lop~ 3;
#X obj 671 482 lop~ 3;
#X obj 793 480 lop~ 3;
#X obj 908 479 lop~ 3;
#X obj 1024 477 lop~ 3;
#X obj 649 43 r euler;
#X obj 648 65 unpack f f f;
#X text 636 27 Euler unpacks to: roll \, pitch \, yaw;
#X obj 531 246 +~ 100;
#N canvas 595 285 450 300 print_myo_inputs 0;
#X obj 75 17 inlet;
#X obj 212 92 metro 1000;
#X obj 220 68 tgl 15 0 empty empty empty 17 7 0 10 -262144 -1 -1 0
1;
#X obj 50 154 r emg;
#X obj 134 153 r acc;
#X obj 209 149 r ori;
#X obj 295 151 r gyr;
#X obj 377 150 r euler;
#N canvas 837 200 835 398 emg_print 0;
#X obj 182 7 inlet;
#X obj 483 10 inlet;
#X obj 371 93 unpack f f f f f f f f;
#X obj 388 128 f;
#X obj 398 138 f;
#X obj 408 148 f;
#X obj 418 158 f;
#X obj 428 168 f;
#X obj 438 178 f;
#X obj 448 188 f;
#X obj 463 207 f;
#X obj 218 132 bng 15 250 50 0 empty empty empty 17 7 0 10 -262144
-1 -1;
#X obj 407 246 print emg;
#X connect 0 0 11 0;
#X connect 1 0 2 0;
#X connect 2 0 3 1;
#X connect 2 1 4 1;
#X connect 2 2 5 1;
#X connect 2 3 6 1;
#X connect 2 4 7 1;
#X connect 2 5 8 1;
#X connect 2 6 9 1;
#X connect 2 7 10 1;
#X connect 3 0 12 0;
#X connect 4 0 12 0;
#X connect 5 0 12 0;
#X connect 6 0 12 0;
#X connect 7 0 12 0;
#X connect 8 0 12 0;
#X connect 9 0 12 0;
#X connect 10 0 12 0;
#X connect 11 0 3 0;
#X connect 11 0 4 0;
#X connect 11 0 5 0;
#X connect 11 0 6 0;
#X connect 11 0 7 0;
#X connect 11 0 8 0;
#X connect 11 0 9 0;
#X connect 11 0 10 0;
#X restore 35 221 pd emg_print;
#N canvas 605 200 835 398 ori_print 0;
#X obj 182 7 inlet;
#X obj 483 10 inlet;
#X obj 323 117 f;
#X obj 333 127 f;
#X obj 343 137 f;
#X obj 353 147 f;
#X obj 269 123 bng 15 250 50 0 empty empty empty 17 7 0 10 -262144
-1 -1;
#X obj 315 85 unpack f f f f;
#X obj 340 184 print ori;
#X connect 0 0 6 0;
#X connect 1 0 7 0;
#X connect 2 0 8 0;
#X connect 3 0 8 0;
#X connect 4 0 8 0;
#X connect 5 0 8 0;
#X connect 6 0 2 0;
#X connect 6 0 3 0;
#X connect 6 0 4 0;
#X connect 6 0 5 0;
#X connect 7 0 2 1;
#X connect 7 1 3 1;
#X connect 7 2 4 1;
#X connect 7 3 5 1;
#X restore 179 220 pd ori_print;
#N canvas 586 461 835 398 euler_print 0;
#X obj 182 7 inlet;
#X obj 483 10 inlet;
#X obj 323 117 f;
#X obj 333 127 f;
#X obj 343 137 f;
#X obj 269 123 bng 15 250 50 0 empty empty empty 17 7 0 10 -262144
-1 -1;
#X obj 315 85 unpack f f f;
#X obj 241 193 print roll;
#X obj 320 226 print pitch;
#X obj 424 261 print yaw;
#X connect 0 0 5 0;
#X connect 1 0 6 0;
#X connect 2 0 7 0;
#X connect 3 0 8 0;
#X connect 4 0 9 0;
#X connect 5 0 2 0;
#X connect 5 0 3 0;
#X connect 5 0 4 0;
#X connect 6 0 2 1;
#X connect 6 1 3 1;
#X connect 6 2 4 1;
#X restore 323 221 pd euler_print;
#X connect 0 0 2 0;
#X connect 1 0 8 0;
#X connect 1 0 9 0;
#X connect 1 0 10 0;
#X connect 2 0 1 0;
#X connect 3 0 8 1;
#X connect 5 0 9 1;
#X connect 7 0 10 1;
#X restore 31 58 pd print_myo_inputs;
#X obj 29 20 loadbang;
#X obj 533 221 *~ 100;
#X obj 532 196 lop~ 3;
#N canvas 0 22 617 580 standstill 0;
#X obj 124 511 outlet~;
#X obj 139 403 line~;
#X obj 63 147 tgl 15 0 empty empty empty 17 7 0 10 -262144 -1 -1 0
1;
#X obj 269 283 select 1 0;
#X obj 139 430 *~;
#X obj 133 331 delay 10;
#X obj 60 99 abs;
#X obj 275 259 change;
#X obj 241 331 print standstill;
#X obj 271 354 print moved;
#X obj 60 123 < 0.07;
#X text 213 481 change to log ramp;
#X text 208 512 outlet is a volumelevel;
#X obj 53 32 r accmag;
#X obj 53 63 - 0.98;
#X obj 248 24 r gyrmag;
#X floatatom 114 126 5 0 0 0 - - -, f 5;
#X obj 257 123 tgl 15 0 empty empty empty 17 7 0 10 -262144 -1 -1 0
1;
#X obj 229 197 &&;
#X obj 221 230 tgl 15 0 empty empty empty 17 7 0 10 -262144 -1 -1 0
1;
#X obj 258 100 < 10;
#X floatatom 299 101 5 0 0 0 - - -, f 5;
#X obj 344 235 spigot;
#X obj 366 205 tgl 15 0 empty empty empty 17 7 0 10 -262144 -1 -1 1
1;
#X obj 400 512 outlet~;
#X obj 397 415 line~;
#X obj 397 442 *~;
#X obj 391 343 delay 10;
#X obj 400 482 *~;
#X obj 141 473 *~;
#X msg 491 467 0.7;
#X obj 492 425 loadbang;
#X obj 349 178 r standstill_toggle;
#X obj 251 398 r standstill_vol_up;
#X msg 257 420 1 10;
#X obj 53 289 s standstill_lock;
#X msg 60 254 0;
#X msg 98 253 1;
#X obj 70 402 line;
#X obj 63 434 select 0;
#X obj 50 474 bng 15 250 50 0 empty empty empty 17 7 0 10 -262144 -1
-1;
#X msg 201 356 0 500;
#X msg 453 369 0 500;
#X msg 135 359 1 45000;
#X msg 393 371 1 60000;
#X connect 1 0 4 0;
#X connect 1 0 4 1;
#X connect 2 0 18 0;
#X connect 3 0 5 0;
#X connect 3 0 8 0;
#X connect 3 0 27 0;
#X connect 3 0 36 0;
#X connect 3 1 41 0;
#X connect 3 1 9 0;
#X connect 3 1 42 0;
#X connect 4 0 29 0;
#X connect 5 0 43 0;
#X connect 6 0 10 0;
#X connect 6 0 16 0;
#X connect 7 0 3 0;
#X connect 10 0 2 0;
#X connect 13 0 14 0;
#X connect 14 0 6 0;
#X connect 15 0 20 0;
#X connect 15 0 21 0;
#X connect 17 0 18 1;
#X connect 18 0 19 0;
#X connect 19 0 22 0;
#X connect 20 0 17 0;
#X connect 22 0 7 0;
#X connect 23 0 22 1;
#X connect 25 0 26 0;
#X connect 25 0 26 1;
#X connect 26 0 28 0;
#X connect 27 0 44 0;
#X connect 28 0 24 0;
#X connect 29 0 0 0;
#X connect 30 0 28 1;
#X connect 30 0 29 1;
#X connect 31 0 30 0;
#X connect 32 0 23 0;
#X connect 33 0 34 0;
#X connect 34 0 25 0;
#X connect 34 0 1 0;
#X connect 36 0 35 0;
#X connect 37 0 35 0;
#X connect 38 0 39 0;
#X connect 39 0 40 0;
#X connect 40 0 37 0;
#X connect 41 0 1 0;
#X connect 41 0 38 0;
#X connect 42 0 25 0;
#X connect 43 0 1 0;
#X connect 43 0 38 0;
#X connect 44 0 25 0;
#X restore 542 551 pd standstill;
#X obj 823 576 *~;
#X obj 376 573 *~;
#N canvas 375 499 1412 598 multipliers 0;
#X obj 243 298 1;
#X floatatom 409 66 5 0 0 0 - - -, f 5;
#X obj 291 298 +;
#X floatatom 242 323 5 0 0 0 - - -, f 5;
#X floatatom 292 324 5 0 0 0 - - -, f 5;
#X obj 338 297 +;
#X floatatom 339 323 5 0 0 0 - - -, f 5;
#X obj 387 296 +;
#X floatatom 387 320 5 0 0 0 - - -, f 5;
#X obj 444 293 +;
#X floatatom 444 319 5 0 0 0 - - -, f 5;
#X obj 500 293 +;
#X floatatom 500 319 5 0 0 0 - - -, f 5;
#X obj 559 292 +;
#X floatatom 559 318 5 0 0 0 - - -, f 5;
#X obj 613 294 +;
#X floatatom 613 320 5 0 0 0 - - -, f 5;
#X obj 410 93 / 1000;
#X obj 109 54 inlet;
#X obj 192 405 outlet;
#X obj 248 405 outlet;
#X obj 306 404 outlet;
#X obj 368 405 outlet;
#X obj 444 402 outlet;
#X obj 500 402 outlet;
#X obj 558 401 outlet;
#X obj 613 400 outlet;
#X obj 350 63 * 1000;
#X obj 352 38 + 1.01;
#X text 68 22 input -1 to 1;
#X obj 290 274 + 0.1;
#X obj 387 274 + 0.1;
#X obj 444 273 * 0.98;
#X obj 500 272 + 0.15;
#X obj 560 270 + 0.02;
#X obj 352 120 t b f f f f f f f f;
#X floatatom 292 121 5 0 0 0 - - -, f 5;
#X obj 125 189 * 3.14159;
#X obj 125 213 cos;
#X floatatom 124 234 5 0 0 0 - - -, f 5;
#X obj 122 143 - 1;
#X obj 124 166 * 2;
#X obj 1024 233 * 3.14159;
#X obj 1024 257 cos;
#X floatatom 1023 278 5 0 0 0 - - -, f 5;
#X obj 1021 187 - 1;
#X obj 1023 210 * 2;
#X obj 1283 45 inlet;
#X floatatom 973 76 5 0 0 0 - - -, f 5;
#X obj 974 103 / 1000;
#X obj 914 73 * 1000;
#X obj 916 130 t b f f f f f f f f;
#X floatatom 856 131 5 0 0 0 - - -, f 5;
#X obj 614 270 +;
#X obj 341 274 +;
#X obj 916 48 + 0.51;
#X connect 0 0 2 0;
#X connect 0 0 3 0;
#X connect 1 0 17 0;
#X connect 2 0 4 0;
#X connect 2 0 5 0;
#X connect 3 0 19 0;
#X connect 4 0 20 0;
#X connect 5 0 6 0;
#X connect 5 0 7 0;
#X connect 6 0 21 0;
#X connect 7 0 8 0;
#X connect 7 0 9 0;
#X connect 8 0 22 0;
#X connect 9 0 10 0;
#X connect 9 0 11 0;
#X connect 10 0 23 0;
#X connect 11 0 12 0;
#X connect 11 0 13 0;
#X connect 12 0 24 0;
#X connect 13 0 14 0;
#X connect 13 0 15 0;
#X connect 14 0 25 0;
#X connect 15 0 16 0;
#X connect 16 0 26 0;
#X connect 17 0 35 0;
#X connect 17 0 36 0;
#X connect 18 0 28 0;
#X connect 27 0 1 0;
#X connect 28 0 27 0;
#X connect 30 0 2 1;
#X connect 31 0 7 1;
#X connect 32 0 9 1;
#X connect 33 0 11 1;
#X connect 34 0 13 1;
#X connect 35 0 0 0;
#X connect 35 1 30 0;
#X connect 35 2 54 0;
#X connect 35 3 31 0;
#X connect 35 4 32 0;
#X connect 35 5 33 0;
#X connect 35 6 34 0;
#X connect 35 7 53 0;
#X connect 37 0 38 0;
#X connect 38 0 39 0;
#X connect 40 0 41 0;
#X connect 41 0 37 0;
#X connect 42 0 43 0;
#X connect 43 0 44 0;
#X connect 45 0 46 0;
#X connect 46 0 42 0;
#X connect 47 0 55 0;
#X connect 48 0 49 0;
#X connect 49 0 51 0;
#X connect 49 0 52 0;
#X connect 50 0 48 0;
#X connect 52 0 53 1;
#X connect 52 0 34 1;
#X connect 52 0 33 1;
#X connect 52 0 32 1;
#X connect 52 0 31 1;
#X connect 52 0 54 1;
#X connect 52 0 30 1;
#X connect 53 0 15 1;
#X connect 54 0 5 1;
#X connect 55 0 50 0;
#X restore 817 271 pd multipliers;
#X obj 129 437 *~;
#X obj 251 438 *~;
#X obj 366 436 *~;
#X obj 482 436 *~;
#X obj 604 437 *~;
#X obj 726 433 *~;
#X obj 841 432 *~;
#X obj 984 452 *~;
#X obj 129 464 osc~;
#X obj 251 462 osc~;
#X obj 366 461 osc~;
#X obj 482 459 osc~;
#X obj 604 460 osc~;
#X obj 726 458 osc~;
#X obj 841 457 osc~;
#X obj 985 475 osc~;
#N canvas 0 22 1240 788 distortion 0;
#X obj 138 41 inlet~;
#X obj 142 61 *~, f 2;
#X obj 601 160 inlet;
#X obj 713 162 inlet;
#X obj 801 160 inlet;
#X obj 895 162 inlet;
#X obj 99 267 *~;
#X obj 246 271 *~;
#X obj 400 271 *~;
#X text 114 518 metal zone! GET IN THE ZONE.;
#X text 598 135 dist;
#X obj 971 163 inlet;
#X obj 1065 165 inlet;
#X text 714 141 low;
#X text 804 138 mid;
#X text 888 136 high;
#X text 962 139 mid freq;
#X obj 971 192 vsl 15 128 0 1 0 0 empty empty empty 0 -9 0 10 -262144
-1 -1 2540 1;
#X obj 973 350 + 200;
#X obj 973 326 * 5000;
#X floatatom 975 374 5 0 0 0 - - -, f 5;
#X obj 416 231 hip~ 7000;
#X obj 718 384 dbtorms;
#X obj 715 197 vsl 15 128 -1 1 0 0 empty empty empty 0 -9 0 10 -262144
-1 -1 8572 1;
#X obj 715 337 * 15;
#X floatatom 718 406 9 0 0 0 - - -, f 9;
#X floatatom 740 311 5 0 0 0 - - -, f 5;
#X obj 717 360 + 100;
#X obj 805 379 dbtorms;
#X obj 802 192 vsl 15 128 -1 1 0 0 empty empty empty 0 -9 0 10 -262144
-1 -1 6350 1;
#X obj 802 332 * 15;
#X floatatom 805 401 9 0 0 0 - - -, f 9;
#X floatatom 827 306 5 0 0 0 - - -, f 5;
#X obj 804 355 + 100;
#X obj 888 380 dbtorms;
#X obj 885 193 vsl 15 128 -1 1 0 0 empty empty empty 0 -9 0 10 -262144
-1 -1 6985 1;
#X obj 885 333 * 15;
#X floatatom 888 402 9 0 0 0 - - -, f 9;
#X floatatom 910 307 5 0 0 0 - - -, f 5;
#X obj 887 356 + 100;
#X obj 246 234 bp~ 1000 4;
#X obj 237 374 *~;
#X obj 237 421 outlet~;
#X text 1065 141 outlet;
#X obj 1066 193 vsl 15 128 0 1 0 0 empty empty empty 0 -9 0 10 -262144
-1 -1 12700 1;
#X floatatom 1090 310 5 0 0 0 - - -, f 5;
#X obj 599 381 dbtorms;
#X obj 596 199 vsl 15 128 -1 1 0 0 empty empty empty 0 -9 0 10 -262144
-1 -1 12700 1;
#X floatatom 599 403 9 0 0 0 - - -, f 9;
#X floatatom 621 308 5 0 0 0 - - -, f 5;
#X obj 108 228 bp~ 200 3.1;
#X msg 741 48 0;
#X msg 791 47 0.1;
#X floatatom 997 300 5 0 0 0 - - -, f 5;
#X msg 835 46 0.2;
#X obj 715 13 loadbang;
#X msg 896 46 1;
#X msg 667 52 0.35;
#X obj 142 112 clip~ -1 1;
#X obj 598 357 + 120;
#X text 374 77 feedback delay loop;
#X msg 595 54 1;
#X text 242 109 distort stage;
#X text 216 60 gain;
#X obj 145 151 *~ 1;
#X obj 63 87 expr~ tanh($v1);
#X floatatom 558 436 5 0 0 0 - - -, f 5;
#X obj 596 334 * 30;
#X text 529 478 alternatively \, * 20;
#X connect 0 0 1 0;
#X connect 1 0 58 0;
#X connect 1 0 65 0;
#X connect 2 0 47 0;
#X connect 3 0 23 0;
#X connect 4 0 29 0;
#X connect 5 0 35 0;
#X connect 6 0 41 0;
#X connect 7 0 41 0;
#X connect 8 0 41 0;
#X connect 11 0 17 0;
#X connect 12 0 44 0;
#X connect 17 0 19 0;
#X connect 17 0 53 0;
#X connect 18 0 20 0;
#X connect 18 0 40 1;
#X connect 19 0 18 0;
#X connect 21 0 8 0;
#X connect 22 0 25 0;
#X connect 23 0 24 0;
#X connect 23 0 26 0;
#X connect 24 0 27 0;
#X connect 25 0 6 1;
#X connect 27 0 22 0;
#X connect 28 0 31 0;
#X connect 29 0 30 0;
#X connect 29 0 32 0;
#X connect 30 0 33 0;
#X connect 31 0 7 1;
#X connect 33 0 28 0;
#X connect 34 0 37 0;
#X connect 35 0 36 0;
#X connect 35 0 38 0;
#X connect 36 0 39 0;
#X connect 37 0 8 1;
#X connect 39 0 34 0;
#X connect 40 0 7 0;
#X connect 41 0 42 0;
#X connect 44 0 45 0;
#X connect 44 0 41 1;
#X connect 46 0 48 0;
#X connect 47 0 49 0;
#X connect 47 0 67 0;
#X connect 48 0 1 1;
#X connect 50 0 6 0;
#X connect 51 0 29 0;
#X connect 52 0 35 0;
#X connect 54 0 17 0;
#X connect 55 0 57 0;
#X connect 55 0 51 0;
#X connect 55 0 52 0;
#X connect 55 0 54 0;
#X connect 55 0 56 0;
#X connect 55 0 61 0;
#X connect 56 0 44 0;
#X connect 57 0 23 0;
#X connect 59 0 46 0;
#X connect 59 0 66 0;
#X connect 61 0 47 0;
#X connect 64 0 50 0;
#X connect 64 0 40 0;
#X connect 64 0 21 0;
#X connect 65 0 64 0;
#X connect 67 0 59 0;
#X restore 728 656 pd distortion;
#N canvas 741 577 939 298 testemg 0;
#X obj 122 102 tgl 15 0 empty empty empty 17 7 0 10 -262144 -1 -1 0
1;
#X obj 77 179 pack f f f f f f f f;
#X obj 81 137 t f f f f f f f f;
#X obj 74 212 s emg;
#X obj 248 181 s accmag;
#X obj 419 23 vsl 15 128 -1 1 0 0 empty empty empty 0 -9 0 10 -262144
-1 -1 0 1;
#X floatatom 418 160 5 0 0 0 - - -, f 5;
#X obj 421 208 pack f f f;
#X obj 421 233 s euler;
#X obj 466 21 vsl 15 128 -1 1 0 0 empty empty empty 0 -9 0 10 -262144
-1 -1 0 1;
#X floatatom 465 161 5 0 0 0 - - -, f 5;
#X obj 513 23 vsl 15 128 -1 1 0 0 empty empty empty 0 -9 0 10 -262144
-1 -1 0 1;
#X floatatom 512 160 5 0 0 0 - - -, f 5;
#X obj 368 167 t b;
#X connect 0 0 2 0;
#X connect 1 0 3 0;
#X connect 2 0 1 0;
#X connect 2 1 1 1;
#X connect 2 2 1 2;
#X connect 2 3 1 3;
#X connect 2 4 1 4;
#X connect 2 5 1 5;
#X connect 2 6 1 6;
#X connect 2 7 1 7;
#X connect 2 7 4 0;
#X connect 5 0 6 0;
#X connect 6 0 7 0;
#X connect 7 0 8 0;
#X connect 9 0 10 0;
#X connect 10 0 7 1;
#X connect 10 0 13 0;
#X connect 11 0 12 0;
#X connect 12 0 7 2;
#X connect 12 0 13 0;
#X connect 13 0 7 0;
#X restore 27 91 pd testemg;
#X obj 847 188 * 3.14159;
#X obj 847 212 cos;
#X floatatom 805 235 9 0 0 0 - - -, f 9;
#X obj 890 214 sin;
#X floatatom 901 240 9 0 0 0 - - -, f 9;
#X obj 846 163 * 1;
#X obj 531 171 * 1;
#N canvas 0 22 1440 856 compress 0;
#X obj 28 16 inlet~;
#X obj 28 769 outlet~;
#X obj 43 62 env~ 256;
#X obj 28 739 *~;
#X obj 43 679 pack f 40;
#X obj 43 709 line~;
#X obj 53 126 r \$0-graph-input;
#X obj 88 84 r \$0-switch;
#X obj 43 104 spigot 1;
#X text 112 679 40 ms attack/release;
#X obj 43 654 min 1;
#X obj 143 459 t b f;
#X obj 88 519 f;
#X obj 88 549 /;
#X obj 88 489 -;
#X obj 43 413 f;
#X obj 103 342 t b f f;
#X obj 88 579 +;
#X obj 103 248 \$1;
#X obj 276 247 \$2;
#X obj 103 270 t f f;
#X obj 103 156 loadbang;
#X obj 103 178 t b b;
#X obj 276 269 t f f;
#X obj 276 217 r \$0-ratio;
#X obj 111 217 r \$0-threshold;
#X obj 43 156 t f f;
#X text 120 549 Gain reduction;
#X obj 43 459 moses 70;
#X obj 103 459 t f f;
#N canvas 639 436 354 265 gainreduc 0;
#X obj 32 94 -;
#X obj 32 114 / 20;
#X obj 32 134 t b f;
#X msg 32 154 10;
#X obj 32 174 pow;
#X obj 32 34 inlet output;
#X obj 47 64 inlet input;
#X obj 32 206 outlet gain-reduction;
#X text 70 172 gr = 20*log10(output - input);
#X obj 141 64 r \$0-switch;
#X obj 141 86 sel 0;
#X msg 141 108 1;
#X text 174 109 If switched off \, no gr;
#X connect 0 0 1 0;
#X connect 1 0 2 0;
#X connect 2 0 3 0;
#X connect 2 1 4 1;
#X connect 3 0 4 0;
#X connect 4 0 7 0;
#X connect 5 0 0 0;
#X connect 6 0 0 1;
#X connect 9 0 10 0;
#X connect 10 0 11 0;
#X connect 11 0 7 0;
#X restore 43 629 pd gainreduc;
#X obj 157 294 print thresh;
#X obj 328 310 print ratio;
#X obj 195 139 bng 15 250 50 0 empty empty empty 17 7 0 10 -262144
-1 -1;
#X obj 268 43 inlet;
#X obj 270 66 unpack f f;
#X connect 0 0 2 0;
#X connect 0 0 3 0;
#X connect 2 0 8 0;
#X connect 3 0 1 0;
#X connect 4 0 5 0;
#X connect 5 0 3 1;
#X connect 6 0 26 0;
#X connect 7 0 8 1;
#X connect 8 0 26 0;
#X connect 10 0 4 0;
#X connect 11 0 12 0;
#X connect 11 1 13 1;
#X connect 12 0 13 0;
#X connect 13 0 17 0;
#X connect 14 0 12 0;
#X connect 15 0 28 0;
#X connect 16 0 15 0;
#X connect 16 1 28 1;
#X connect 16 2 29 0;
#X connect 17 0 30 0;
#X connect 18 0 20 0;
#X connect 19 0 23 0;
#X connect 20 0 16 0;
#X connect 20 1 31 0;
#X connect 21 0 22 0;
#X connect 22 0 18 0;
#X connect 22 1 19 0;
#X connect 23 0 11 0;
#X connect 23 1 32 0;
#X connect 24 0 19 0;
#X connect 25 0 18 0;
#X connect 26 0 15 0;
#X connect 26 1 30 1;
#X connect 28 0 30 0;
#X connect 28 1 14 0;
#X connect 29 0 14 1;
#X connect 29 1 17 1;
#X connect 30 0 10 0;
#X connect 33 0 22 0;
#X connect 34 0 35 0;
#X connect 35 0 18 0;
#X connect 35 1 19 0;
#X restore 579 763 pd compress 67 2;
#X msg 705 790 67 2;
#X obj 704 762 loadbang;
#N canvas 0 470 450 300 clean 0;
#X obj 58 27 inlet~;
#X obj 65 185 outlet~;
#X connect 0 0 1 0;
#X restore 459 666 pd clean;
#X obj 544 688 *~ 2;
#X obj 691 689 *~ 0.6;
#N canvas 0 22 601 428 crossfade 0;
#X obj 17 32 inlet~;
#X obj 81 32 inlet~;
#X obj 27 367 outlet~;
#X obj 37 219 cos~;
#X obj 110 219 cos~;
#X obj 118 130 hsl 100 15 0 0.25 0 0 empty empty empty -2 -8 0 10 -262144
-1 -1 4950 1;
#X floatatom 146 149 5 0 0 0 - - -, f 5;
#X obj 110 188 + 0.75;
#X obj 23 267 *~;
#X obj 96 269 *~;
#X obj 110 77 loadbang;
#X msg 110 101 0.125;
#X obj 186 93 * 0.25;
#X obj 176 31 inlet;
#X obj 348 49 r euler;
#X obj 347 71 unpack f f f;
#X obj 345 101 * 3.14159;
#X obj 345 125 cos;
#X floatatom 385 129 5 0 0 0 - - -, f 5;
#X floatatom 406 182 5 0 0 0 - - -, f 5;
#X obj 346 158 - 1;
#X obj 347 183 * -0.5;
#X floatatom 436 100 5 0 0 0 - - -, f 5;
#X obj 352 314 t f;
#X floatatom 401 351 5 0 0 0 - - -, f 5;
#X obj 330 265 t b;
#X obj 332 287 0;
#X obj 350 241 moses 0.15;
#X obj 407 267 - 0.15;
#X obj 406 290 * 1.17;
#X connect 0 0 8 0;
#X connect 1 0 9 0;
#X connect 3 0 8 1;
#X connect 4 0 9 1;
#X connect 5 0 6 0;
#X connect 5 0 3 0;
#X connect 5 0 7 0;
#X connect 7 0 4 0;
#X connect 8 0 2 0;
#X connect 9 0 2 0;
#X connect 10 0 11 0;
#X connect 11 0 5 0;
#X connect 12 0 5 0;
#X connect 13 0 12 0;
#X connect 14 0 15 0;
#X connect 15 0 16 0;
#X connect 15 0 22 0;
#X connect 16 0 17 0;
#X connect 17 0 18 0;
#X connect 17 0 20 0;
#X connect 20 0 21 0;
#X connect 21 0 19 0;
#X connect 21 0 27 0;
#X connect 23 0 24 0;
#X connect 23 0 12 0;
#X connect 25 0 26 0;
#X connect 26 0 23 0;
#X connect 27 0 25 0;
#X connect 27 1 28 0;
#X connect 28 0 29 0;
#X connect 29 0 23 0;
#X restore 582 726 pd crossfade;
#N canvas 0 22 1008 471 visualise_myo 0;
#X obj 157 42 r euler;
#X obj 156 64 unpack f f f;
#X obj 140 168 lop~ 3;
#X obj 193 168 lop~ 3;
#X obj 251 168 lop~ 3;
#X obj 160 199 dac~ 27 28 29 30;
#X text 154 23 Euler unpacks to: roll \, pitch \, yaw;
#X obj 114 90 * 3.14159;
#X obj 114 114 cos;
#X obj 114 136 * -1;
#X obj 268 84 lop~ 3;
#X obj 269 53 r gyrmag;
#X connect 0 0 1 0;
#X connect 1 0 7 0;
#X connect 1 1 3 0;
#X connect 1 2 4 0;
#X connect 2 0 5 0;
#X connect 3 0 5 1;
#X connect 4 0 5 2;
#X connect 7 0 8 0;
#X connect 8 0 9 0;
#X connect 9 0 2 0;
#X connect 10 0 5 3;
#X connect 11 0 10 0;
#X restore 258 44 pd visualise_myo;
#N canvas 0 255 450 300 ping 0;
#X obj 54 126 osc~ 440;
#X obj 279 13 inlet;
#X obj 68 95 vline~;
#X msg 64 64 1 50 \, 0 350 50;
#X obj 73 197 outlet~;
#X obj 156 139 *~;
#X obj 236 86 random 200;
#X obj 237 108 + 400;
#X obj 294 45 bng 15 250 50 0 empty empty empty 17 7 0 10 -262144 -1
-1;
#X obj 200 63 delay 50;
#X obj 190 18 r test_ping;
#X obj 72 161 *~ 0.7;
#X connect 0 0 5 0;
#X connect 1 0 8 0;
#X connect 2 0 5 1;
#X connect 3 0 2 0;
#X connect 5 0 11 0;
#X connect 6 0 7 0;
#X connect 7 0 0 0;
#X connect 8 0 6 0;
#X connect 8 0 9 0;
#X connect 9 0 3 0;
#X connect 10 0 8 0;
#X connect 11 0 4 0;
#X restore 675 881 pd ping;
#X obj 127 686 vu 30 200 master_snd empty -1 -8 0 10 -66577 -1 1 0
;
#X obj 499 819 env~;
#X floatatom 499 860 5 0 0 0 - - master_snd, f 5;
#X obj 499 839 - 100;
#X obj 579 787 *~ 1.2;
#X obj 1214 511 tgl 100 0 standstill_toggle empty standstill_toggle
17 7 0 10 -258113 -1 -1 1 1;
#X obj 1211 648 bng 100 250 50 0 test_ping empty test_ping 17 7 0 10
-260097 -1 -1;
#X obj 1215 485 loadbang;
#X obj 1211 627 loadbang;
#X obj 1209 779 bng 100 250 50 0 standstill_vol_up empty standstill_vol_up
17 7 0 10 -257985 -1 -1;
#X text 27 123 TODO: try out param-lock on standstill \, consider slower
fade out after that.;
#X obj 1081 173 spigot;
#X obj 1018 173 spigot;
#X obj 1067 70 r standstill_lock;
#X floatatom 1018 195 5 0 0 0 - - -, f 5;
#X floatatom 1081 195 5 0 0 0 - - -, f 5;
#X obj 1004 92 tgl 15 0 empty empty empty 17 7 0 10 -262144 -1 -1 0
1;
#X obj 674 189 spigot;
#X floatatom 674 211 5 0 0 0 - - -, f 5;
#X connect 0 0 17 0;
#X connect 1 0 20 0;
#X connect 2 0 37 0;
#X connect 3 0 19 0;
#X connect 4 0 37 0;
#X connect 5 0 21 0;
#X connect 6 0 37 0;
#X connect 7 0 22 0;
#X connect 8 0 37 0;
#X connect 9 0 23 0;
#X connect 10 0 36 0;
#X connect 11 0 24 0;
#X connect 12 0 36 0;
#X connect 13 0 25 0;
#X connect 14 0 36 0;
#X connect 15 0 26 0;
#X connect 16 0 36 0;
#X connect 17 0 1 0;
#X connect 17 1 3 0;
#X connect 17 2 5 0;
#X connect 17 3 7 0;
#X connect 17 4 9 0;
#X connect 17 5 11 0;
#X connect 17 6 13 0;
#X connect 17 7 15 0;
#X connect 19 0 4 1;
#X connect 20 0 2 1;
#X connect 21 0 6 1;
#X connect 22 0 8 1;
#X connect 23 0 10 1;
#X connect 24 0 12 1;
#X connect 25 0 14 1;
#X connect 26 0 16 1;
#X connect 27 0 28 0;
#X connect 28 1 90 0;
#X connect 28 2 62 0;
#X connect 30 0 39 0;
#X connect 30 0 40 0;
#X connect 30 0 41 0;
#X connect 30 0 42 0;
#X connect 30 0 43 0;
#X connect 30 0 44 0;
#X connect 30 0 45 0;
#X connect 30 0 46 0;
#X connect 33 0 30 0;
#X connect 34 0 33 0;
#X connect 35 0 37 1;
#X connect 35 1 36 1;
#X connect 36 0 55 0;
#X connect 36 0 67 0;
#X connect 37 0 55 0;
#X connect 37 0 67 0;
#X connect 38 0 39 1;
#X connect 38 1 40 1;
#X connect 38 2 41 1;
#X connect 38 3 42 1;
#X connect 38 4 43 1;
#X connect 38 5 44 1;
#X connect 38 6 45 1;
#X connect 38 7 46 1;
#X connect 39 0 47 0;
#X connect 40 0 48 0;
#X connect 41 0 49 0;
#X connect 42 0 50 0;
#X connect 43 0 51 0;
#X connect 44 0 52 0;
#X connect 45 0 53 0;
#X connect 46 0 54 0;
#X connect 47 0 2 0;
#X connect 48 0 4 0;
#X connect 49 0 6 0;
#X connect 50 0 8 0;
#X connect 51 0 10 0;
#X connect 52 0 12 0;
#X connect 53 0 14 0;
#X connect 54 0 16 0;
#X connect 55 0 69 0;
#X connect 57 0 58 0;
#X connect 57 0 60 0;
#X connect 58 0 59 0;
#X connect 59 0 85 0;
#X connect 60 0 61 0;
#X connect 60 0 84 0;
#X connect 62 0 57 0;
#X connect 63 0 34 0;
#X connect 64 0 77 0;
#X connect 65 0 64 1;
#X connect 66 0 65 0;
#X connect 67 0 68 0;
#X connect 68 0 70 0;
#X connect 69 0 70 1;
#X connect 70 0 64 0;
#X connect 72 0 64 0;
#X connect 74 0 76 0;
#X connect 76 0 75 0;
#X connect 77 0 18 0;
#X connect 77 0 18 1;
#X connect 77 0 74 0;
#X connect 80 0 78 0;
#X connect 81 0 79 0;
#X connect 84 0 38 1;
#X connect 84 0 88 0;
#X connect 85 0 38 0;
#X connect 85 0 87 0;
#X connect 86 0 89 0;
#X connect 89 0 90 1;
#X connect 89 0 85 1;
#X connect 89 0 84 1;
#X connect 90 0 91 0;
#X connect 91 0 63 0;
